<mxfile host="app.diagrams.net" agent="Mozilla/5.0 (Macintosh; Intel Mac OS X 10.15; rv:137.0) Gecko/20100101 Firefox/137.0" version="26.2.14">
  <diagram name="Page-1" id="c7558073-3199-34d8-9f00-42111426c3f3">
    <mxGraphModel dx="1169" dy="696" grid="1" gridSize="10" guides="1" tooltips="1" connect="1" arrows="1" fold="1" page="1" pageScale="1" pageWidth="826" pageHeight="1169" background="none" math="0" shadow="0">
      <root>
        <mxCell id="0" />
        <mxCell id="1" parent="0" />
        <mxCell id="bJnAAFmlwfhufU2LJanT-96" value="&lt;b&gt;&lt;font data-font-src=&quot;https://fonts.googleapis.com/css?family=Montserrat&quot; face=&quot;Montserrat&quot;&gt;&lt;span style=&quot;color: light-dark(rgb(0, 0, 0), rgb(0, 0, 0));&quot;&gt;Desktop Companion App&lt;/span&gt;&lt;/font&gt;&lt;/b&gt;" style="rounded=1;whiteSpace=wrap;html=1;fillColor=light-dark(#FFFFFF,#FFE6CC);" vertex="1" parent="1">
          <mxGeometry x="351" y="30" width="189" height="50" as="geometry" />
        </mxCell>
        <mxCell id="bJnAAFmlwfhufU2LJanT-100" value="&lt;font data-font-src=&quot;https://fonts.googleapis.com/css?family=Montserrat&quot; face=&quot;Montserrat&quot;&gt;&lt;span style=&quot;color: light-dark(rgb(0, 0, 0), rgb(0, 0, 0));&quot;&gt;User Interaction Module&lt;/span&gt;&lt;/font&gt;" style="rounded=1;whiteSpace=wrap;html=1;fillColor=light-dark(#FFCCCC,#FFCCCC);strokeColor=#B09500;fontColor=#000000;" vertex="1" parent="1">
          <mxGeometry x="540" y="140" width="150" height="50" as="geometry" />
        </mxCell>
        <mxCell id="bJnAAFmlwfhufU2LJanT-101" value="&lt;font data-font-src=&quot;https://fonts.googleapis.com/css?family=Montserrat&quot; face=&quot;Montserrat&quot;&gt;&lt;span style=&quot;color: light-dark(rgb(0, 0, 0), rgb(0, 0, 0));&quot;&gt;&lt;span style=&quot;color: light-dark(rgb(0, 0, 0), rgb(0, 0, 0));&quot;&gt;Sy&lt;/span&gt;stem Moitoring Module&lt;/span&gt;&lt;/font&gt;" style="rounded=1;whiteSpace=wrap;html=1;fillColor=light-dark(#FFCCCC,#FFFFCC);strokeColor=#B09500;fontColor=#000000;" vertex="1" parent="1">
          <mxGeometry x="710" y="140" width="150" height="50" as="geometry" />
        </mxCell>
        <mxCell id="bJnAAFmlwfhufU2LJanT-102" value="&lt;font data-font-src=&quot;https://fonts.googleapis.com/css?family=Montserrat&quot; face=&quot;Montserrat&quot;&gt;&lt;span style=&quot;color: light-dark(rgb(0, 0, 0), rgb(0, 0, 0));&quot;&gt;Automation Control Module&lt;/span&gt;&lt;/font&gt;" style="rounded=1;whiteSpace=wrap;html=1;fillColor=light-dark(#FFCCCC,#E6FFCC);strokeColor=#B09500;fontColor=#000000;" vertex="1" parent="1">
          <mxGeometry x="370" y="140" width="150" height="50" as="geometry" />
        </mxCell>
        <mxCell id="bJnAAFmlwfhufU2LJanT-103" value="&lt;font data-font-src=&quot;https://fonts.googleapis.com/css?family=Montserrat&quot; face=&quot;Montserrat&quot;&gt;&lt;span style=&quot;color: light-dark(rgb(0, 0, 0), rgb(0, 0, 0));&quot;&gt;Data Management Module&lt;/span&gt;&lt;/font&gt;" style="rounded=1;whiteSpace=wrap;html=1;fillColor=light-dark(#FFCCCC,#CCFFCC);strokeColor=#B09500;fontColor=#000000;" vertex="1" parent="1">
          <mxGeometry x="30" y="140" width="150" height="50" as="geometry" />
        </mxCell>
        <mxCell id="bJnAAFmlwfhufU2LJanT-104" value="&lt;font data-font-src=&quot;https://fonts.googleapis.com/css?family=Montserrat&quot; face=&quot;Montserrat&quot;&gt;&lt;span style=&quot;color: light-dark(rgb(0, 0, 0), rgb(0, 0, 0));&quot;&gt;Productivity Management Module&lt;/span&gt;&lt;/font&gt;" style="rounded=1;whiteSpace=wrap;html=1;fillColor=light-dark(#FFCCCC,#CCFFFF);strokeColor=#B09500;fontColor=#000000;" vertex="1" parent="1">
          <mxGeometry x="201" y="140" width="150" height="50" as="geometry" />
        </mxCell>
        <mxCell id="bJnAAFmlwfhufU2LJanT-107" value="" style="curved=1;endArrow=classic;html=1;rounded=0;exitX=0.5;exitY=1;exitDx=0;exitDy=0;entryX=0.5;entryY=0;entryDx=0;entryDy=0;" edge="1" parent="1" source="bJnAAFmlwfhufU2LJanT-96" target="bJnAAFmlwfhufU2LJanT-103">
          <mxGeometry width="50" height="50" relative="1" as="geometry">
            <mxPoint x="380" y="400" as="sourcePoint" />
            <mxPoint x="430" y="350" as="targetPoint" />
            <Array as="points">
              <mxPoint x="450" y="100" />
              <mxPoint x="220" y="90" />
              <mxPoint x="105" y="100" />
            </Array>
          </mxGeometry>
        </mxCell>
        <mxCell id="bJnAAFmlwfhufU2LJanT-108" value="" style="curved=1;endArrow=classic;html=1;rounded=0;exitX=0.5;exitY=1;exitDx=0;exitDy=0;entryX=0.5;entryY=0;entryDx=0;entryDy=0;" edge="1" parent="1" source="bJnAAFmlwfhufU2LJanT-96" target="bJnAAFmlwfhufU2LJanT-101">
          <mxGeometry width="50" height="50" relative="1" as="geometry">
            <mxPoint x="771" y="310" as="sourcePoint" />
            <mxPoint x="430" y="370" as="targetPoint" />
            <Array as="points">
              <mxPoint x="446" y="100" />
              <mxPoint x="780" y="90" />
            </Array>
          </mxGeometry>
        </mxCell>
        <mxCell id="bJnAAFmlwfhufU2LJanT-111" value="" style="curved=1;endArrow=classic;html=1;rounded=0;entryX=0.5;entryY=0;entryDx=0;entryDy=0;exitX=0.5;exitY=1;exitDx=0;exitDy=0;" edge="1" parent="1" source="bJnAAFmlwfhufU2LJanT-96" target="bJnAAFmlwfhufU2LJanT-104">
          <mxGeometry width="50" height="50" relative="1" as="geometry">
            <mxPoint x="380" y="360" as="sourcePoint" />
            <mxPoint x="430" y="310" as="targetPoint" />
            <Array as="points">
              <mxPoint x="446" y="120" />
              <mxPoint x="276" y="100" />
            </Array>
          </mxGeometry>
        </mxCell>
        <mxCell id="bJnAAFmlwfhufU2LJanT-112" value="" style="curved=1;endArrow=classic;html=1;rounded=0;entryX=0.5;entryY=0;entryDx=0;entryDy=0;exitX=0.5;exitY=1;exitDx=0;exitDy=0;" edge="1" parent="1" source="bJnAAFmlwfhufU2LJanT-96" target="bJnAAFmlwfhufU2LJanT-100">
          <mxGeometry width="50" height="50" relative="1" as="geometry">
            <mxPoint x="776" y="80" as="sourcePoint" />
            <mxPoint x="606" y="140" as="targetPoint" />
            <Array as="points">
              <mxPoint x="446" y="120" />
              <mxPoint x="600" y="100" />
            </Array>
          </mxGeometry>
        </mxCell>
        <mxCell id="bJnAAFmlwfhufU2LJanT-113" value="" style="endArrow=classic;html=1;rounded=0;exitX=0.5;exitY=1;exitDx=0;exitDy=0;entryX=0.5;entryY=0;entryDx=0;entryDy=0;" edge="1" parent="1" source="bJnAAFmlwfhufU2LJanT-96" target="bJnAAFmlwfhufU2LJanT-102">
          <mxGeometry width="50" height="50" relative="1" as="geometry">
            <mxPoint x="380" y="360" as="sourcePoint" />
            <mxPoint x="430" y="310" as="targetPoint" />
          </mxGeometry>
        </mxCell>
      </root>
    </mxGraphModel>
  </diagram>
</mxfile>
